<?xml version="1.0" encoding="utf-8"?>
<!-- Svg Vector Icons : http://www.onlinewebfonts.com/icon -->
<!DOCTYPE svg PUBLIC "-//W3C//DTD SVG 1.1//EN" "http://www.w3.org/Graphics/SVG/1.1/DTD/svg11.dtd">
<svg version="1.1" xmlns="http://www.w3.org/2000/svg" xmlns:xlink="http://www.w3.org/1999/xlink" x="0px" y="0px" viewBox="0 0 256 256" enable-background="new 0 0 256 256" xml:space="preserve">
<metadata> Svg Vector Icons : http://www.onlinewebfonts.com/icon </metadata>
<g><g><path fill="#000000" d="M240.1,84.9h-5.9c-3.3,0-5.9,2.7-5.9,5.9v33.3H27.6V62.4c0-3.3-2.6-5.9-5.8-5.9h-6c-3.3,0-5.8,2.6-5.8,5.9v131.2c0,3.3,2.6,5.9,5.8,5.9h6c3.2,0,5.8-2.6,5.8-5.9v-47.1h17.7V176h177.2v-29.5h5.9v47.1c0,3.3,2.6,5.9,5.9,5.9h5.9c3.2,0,5.9-2.6,5.9-5.9v-47.1v-22.4V90.8C246,87.6,243.4,84.9,240.1,84.9z"/><path fill="#000000" d="M58.4,93.9c-5-4.6-25-11-25-11v33.3h37.8C71.2,116.2,63.3,98.1,58.4,93.9z"/></g></g>
</svg>